# xmcd
#
# Track frame offsets: 
#        150
#        28119
#        48951
#        77701
#        111074
#        146317
#        170575
#        207443
#        241578
#
# Disc length: 4437 seconds
#
# Revision: 3
# Processed by: cddbd v1.5.2PL0 Copyright (c) Steve Scherf et al.
# Submitted via: ExactAudioCopy v1.0b4
#
DISCID=6e115309
DTITLE=王靜 - 陽春白雪 (LPCD)
DYEAR=2006
DGENRE=Classical
TTITLE0=陽春白雪
TTITLE1=飛花點翠
TTITLE2=旱天雷
TTITLE3=嘎達梅林
TTITLE4=山丹丹開花紅艷艷
TTITLE5=寒鴉戲水
TTITLE6=春江花月夜
TTITLE7=蘭花花
TTITLE8=草原英雄小姐妹
EXTD=
EXTT0=
EXTT1=
EXTT2=
EXTT3=
EXTT4=
EXTT5=
EXTT6=
EXTT7=
EXTT8=
PLAYORDER=
